<svg fill="none" viewBox="0 0 96 96" xmlns="http://www.w3.org/2000/svg">
  <path fill="#399F29" d="M73.327 51c1.56 0 3.007-.897 3.502-2.376A22.566 22.566 0 0 0 78 41.444C78 27.392 65.016 16 49 16h-4v.24c-14.123 1.71-25 12.342-25 25.204 0 8.33 4.563 15.726 11.617 20.368.845.556 1.14 1.672.615 2.533L28.169 71H25.5v3h4c.131-.002.266-.018.404-.05 4.6-1.07 12.342-2.953 19.432-5.057 1.123-.334 1.92-1.306 2.185-2.447C53.582 57.594 61.52 51 71 51h2.327Z"/>
  <path fill="#63C853" d="M71.885 51A22.684 22.684 0 0 0 74 41.444C74 27.392 61.016 16 45 16S16 27.392 16 41.444c0 8.33 4.563 15.726 11.617 20.368.845.556 1.14 1.672.615 2.533l-4.248 6.957c-.824 1.35.37 3.009 1.92 2.648 5.843-1.36 16.758-4.03 24.964-6.802.335-.113.581-.397.662-.742C53.606 57.575 61.535 51 71 51h.885Z"/>
  <path fill="#CCC" d="M92.501 59c.298 0 .595.12.823.354.454.468.454 1.23 0 1.698l-2.333 2.4a1.145 1.145 0 0 1-1.65 0 1.227 1.227 0 0 1 0-1.698l2.333-2.4c.227-.234.524-.354.822-.354h.005Zm-1.166 10.798h3.499c.641 0 1.166.54 1.166 1.2 0 .66-.525 1.2-1.166 1.2h-3.499c-.641 0-1.166-.54-1.166-1.2 0-.66.525-1.2 1.166-1.2Zm-1.982 8.754c.227-.234.525-.354.822-.354h.006c.297 0 .595.12.822.354l2.332 2.4c.455.467.455 1.23 0 1.697a1.145 1.145 0 0 1-1.65 0l-2.332-2.4a1.227 1.227 0 0 1 0-1.697Z"/>
  <rect width="32" height="32" x="55" y="55" fill="#DE5833" rx="16"/>
  <path fill="#fff" fill-rule="evenodd" d="M71 57.044c-7.708 0-13.956 6.248-13.956 13.956 0 7.707 6.248 13.956 13.956 13.956 7.707 0 13.956-6.249 13.956-13.956 0-7.708-6.249-13.956-13.956-13.956ZM58.956 71c0-6.652 5.392-12.044 12.044-12.044 6.651 0 12.044 5.392 12.044 12.044 0 5.892-4.232 10.796-9.822 11.84-1.452-3.336-2.966-7.33-1.485-7.772-1.763-3.18-1.406-5.268 2.254-4.624h.005c.41.047.721.082.818.02.496-.315.189-7.242-4.114-8.182-3.96-4.9-7.73.688-5.817.306 1.529-.382 2.665-.03 2.612-.014-6.755.852-3.614 11.495-1.88 17.369a82.9 82.9 0 0 1 .606 2.116c-4.275-1.85-7.265-6.105-7.265-11.059Z" clip-rule="evenodd"/>
  <path fill="#4CBA3C" d="M76.29 81.09c-.043.274-.137.457-.306.482-.319.05-1.747-.278-2.56-.587-.092.425-2.268.827-2.613.257-.79.682-2.302 1.673-2.619 1.465-.605-.396-1.175-3.45-.72-4.096.693-.63 2.15.055 3.171.417.347-.586 2.024-.808 2.372-.327.917-.697 2.448-1.68 2.597-1.501.745.897.839 3.03.678 3.89Z"/>
  <path fill="#FC3" fill-rule="evenodd" d="M68.53 71.87c.311-2.216 4.496-1.523 6.368-1.772a12.11 12.11 0 0 0 3.05-.755c1.547-.636 1.811-.005 1.054.985-2.136 2.533-6.889.69-7.74 2-.248.388-.056 1.301 1.899 1.589 2.64.388 4.81-.468 5.079.05-.603 2.764-10.63 1.823-9.712-2.097h.001Z" clip-rule="evenodd"/>
  <path fill="#14307E" d="M73.871 65.48c-.277-.6-1.7-.596-1.972-.024-.025.118.075.087.263.028.331-.104.938-.295 1.636.078.055.024.109-.033.073-.083Zm-6.954.143c-.264-.019-.693-.05-1.048.147-.52.222-.688.46-.788.624-.037.06-.181.054-.181-.017.035-.954 1.653-1.414 2.241-.821.072.089-.033.081-.224.067Zm6.447 3.199c-1.088-.005-1.088-1.684 0-1.69 1.09.006 1.09 1.685 0 1.69Zm-5.517-.26c-.021 1.294-1.92 1.294-1.94 0 .005-1.289 1.934-1.288 1.94 0Z"/>
  <path fill="#fff" fill-rule="evenodd" d="M31 46a5 5 0 1 0 0-10 5 5 0 0 0 0 10Zm19-5a5 5 0 1 1-10 0 5 5 0 0 1 10 0Zm14 0a5 5 0 1 1-10 0 5 5 0 0 1 10 0Z" clip-rule="evenodd"/>
</svg>
